# xmcd
#
# Track frame offsets:
#	150
#	12685
#	24328
#	35588
#	45948
#	56038
#	67433
#	76916
#	86654
#	97240
#	108043
#	118741
#	129349
#	138202
#	149417
#	157737
#	167302
#	179162
#
# Disc length: 2553 seconds
#
# Revision: 1
# Processed by: cddbd v1.5.2PL0 Copyright (c) Steve Scherf et al.
# Submitted via: EZCDAudioConverter 3.1.0.1
#
DISCID=f309f712
DTITLE=VA_ - Stompin Volume Four
DYEAR=2003
DGENRE=Rhythm and Blues
TTITLE0=Kip Anderson - I Wanna Be The Only One
TTITLE1=Buddy Rogers - Mad At You
TTITLE2=Bobby "Blue" Bland - You Got Me (Where You Want Me)
TTITLE3=Little Johnnie Cook - Try Your Love
TTITLE4=Sherman Evans - I Don't Care
TTITLE5=Otis Blackwell - You Move Me, Baby
TTITLE6=Finney-Mo - Shake That Thing
TTITLE7=Doc Palmer - Bye Baby Bye
TTITLE8=Jackie Dunham - All Around The World
TTITLE9=K C  Mojo Watson - Love Blood Hound
TTITLE10=Pork Chops - Everything's Cool
TTITLE11=Tender Slim - Don't Cut Out On Me
TTITLE12=The Premiers - Run Along Baby
TTITLE13=Buster Brown - Sugar Babe
TTITLE14=Marty Lewis - Satisfied With My Lovin'
TTITLE15=Good Rockin' Sammy "T" - Good Rockin' Mama
TTITLE16=Kid Thomas - The Wolf Pack
TTITLE17=Big Boy Groves - I Gotta New Car
EXTD=
EXTT0=
EXTT1=
EXTT2=
EXTT3=
EXTT4=
EXTT5=
EXTT6=
EXTT7=
EXTT8=
EXTT9=
EXTT10=
EXTT11=
EXTT12=
EXTT13=
EXTT14=
EXTT15=
EXTT16=
EXTT17=
PLAYORDER=
